REM DIRINDEX 1\5,1\2\6,1\2\7,1\3\8,1\3\9,1\4\10,1\4\11,1\4\12
REM DIRNAME cjc026,folder01,folder02,folder03,folder04,folder05,folder06,folder07,folder08,folder09,folder10,folder11
TITLE ""
FILE "EJE_DB3000_5th_6C_48.mp3" MP3
  TRACK 01 AUDIO
    TITLE "0:"
    INDEX 01 00:00:00
  TRACK 02 AUDIO
    TITLE "10:cjc026_12021"
    INDEX 01 00:00:08
  TRACK 03 AUDIO
    TITLE "0:"
    INDEX 01 00:01:38
  TRACK 04 AUDIO
    TITLE "11:cjc026_12022"
    INDEX 01 00:02:01
  TRACK 05 AUDIO
    TITLE "0:"
    INDEX 01 00:03:47
  TRACK 06 AUDIO
    TITLE "12:cjc026_12023"
    INDEX 01 00:04:07
  TRACK 07 AUDIO
    TITLE "0:"
    INDEX 01 00:05:40
  TRACK 08 AUDIO
    TITLE "10:cjc026_12024"
    INDEX 01 00:06:00
  TRACK 09 AUDIO
    TITLE "0:"
    INDEX 01 00:07:42
  TRACK 10 AUDIO
    TITLE "11:cjc026_12025"
    INDEX 01 00:08:02
  TRACK 11 AUDIO
    TITLE "0:"
    INDEX 01 00:09:70
  TRACK 12 AUDIO
    TITLE "12:cjc026_12026"
    INDEX 01 00:10:33
  TRACK 13 AUDIO
    TITLE "0:"
    INDEX 01 00:11:74
  TRACK 14 AUDIO
    TITLE "10:cjc026_12027"
    INDEX 01 00:12:34
  TRACK 15 AUDIO
    TITLE "0:"
    INDEX 01 00:14:13
  TRACK 16 AUDIO
    TITLE "11:cjc026_12028"
    INDEX 01 00:14:48
  TRACK 17 AUDIO
    TITLE "0:"
    INDEX 01 00:16:12
  TRACK 18 AUDIO
    TITLE "12:cjc026_12029"
    INDEX 01 00:16:47
  TRACK 19 AUDIO
    TITLE "0:"
    INDEX 01 00:18:29
  TRACK 20 AUDIO
    TITLE "10:cjc026_12030"
    INDEX 01 00:18:62
  TRACK 21 AUDIO
    TITLE "0:"
    INDEX 01 00:20:14
  TRACK 22 AUDIO
    TITLE "11:cjc026_12031"
    INDEX 01 00:20:49
  TRACK 23 AUDIO
    TITLE "0:"
    INDEX 01 00:22:05
  TRACK 24 AUDIO
    TITLE "12:cjc026_12032"
    INDEX 01 00:22:40
  TRACK 25 AUDIO
    TITLE "0:"
    INDEX 01 00:23:67
  TRACK 26 AUDIO
    TITLE "10:cjc026_12033"
    INDEX 01 00:24:27
  TRACK 27 AUDIO
    TITLE "0:"
    INDEX 01 00:25:58
  TRACK 28 AUDIO
    TITLE "11:cjc026_12034"
    INDEX 01 00:26:18
  TRACK 29 AUDIO
    TITLE "0:"
    INDEX 01 00:27:59
  TRACK 30 AUDIO
    TITLE "12:cjc026_12035"
    INDEX 01 00:28:19
  TRACK 31 AUDIO
    TITLE "0:"
    INDEX 01 00:29:52
  TRACK 32 AUDIO
    TITLE "10:cjc026_12036"
    INDEX 01 00:30:12
  TRACK 33 AUDIO
    TITLE "0:"
    INDEX 01 00:31:53
  TRACK 34 AUDIO
    TITLE "11:cjc026_12037"
    INDEX 01 00:32:13
  TRACK 35 AUDIO
    TITLE "0:"
    INDEX 01 00:33:44
  TRACK 36 AUDIO
    TITLE "12:cjc026_12038"
    INDEX 01 00:34:04
  TRACK 37 AUDIO
    TITLE "0:"
    INDEX 01 00:35:48
  TRACK 38 AUDIO
    TITLE "10:cjc026_12039"
    INDEX 01 00:36:08
  TRACK 39 AUDIO
    TITLE "0:"
    INDEX 01 00:37:59
  TRACK 40 AUDIO
    TITLE "11:cjc026_12040"
    INDEX 01 00:38:20
  TRACK 41 AUDIO
    TITLE "0:"
    INDEX 01 00:39:69
  TRACK 42 AUDIO
    TITLE "12:cjc026_12041"
    INDEX 01 00:40:29
  TRACK 43 AUDIO
    TITLE "0:"
    INDEX 01 00:42:09
  TRACK 44 AUDIO
    TITLE "10:cjc026_12042"
    INDEX 01 00:42:44
  TRACK 45 AUDIO
    TITLE "0:"
    INDEX 01 00:43:60
  TRACK 46 AUDIO
    TITLE "11:cjc026_12043"
    INDEX 01 00:44:21
  TRACK 47 AUDIO
    TITLE "0:"
    INDEX 01 00:45:64
  TRACK 48 AUDIO
    TITLE "12:cjc026_12044"
    INDEX 01 00:46:24
  TRACK 49 AUDIO
    TITLE "0:"
    INDEX 01 00:47:41
  TRACK 50 AUDIO
    TITLE "10:cjc026_12045"
    INDEX 01 00:48:01
  TRACK 51 AUDIO
    TITLE "0:"
    INDEX 01 00:49:32
  TRACK 52 AUDIO
    TITLE "11:cjc026_12046"
    INDEX 01 00:49:67
  TRACK 53 AUDIO
    TITLE "0:"
    INDEX 01 00:51:06
  TRACK 54 AUDIO
    TITLE "12:cjc026_12047"
    INDEX 01 00:51:41
  TRACK 55 AUDIO
    TITLE "0:"
    INDEX 01 00:52:71
  TRACK 56 AUDIO
    TITLE "10:cjc026_12048"
    INDEX 01 00:53:31
  TRACK 57 AUDIO
    TITLE "0:"
    INDEX 01 00:55:03
  TRACK 58 AUDIO
    TITLE "11:cjc026_12049"
    INDEX 01 00:55:41
  TRACK 59 AUDIO
    TITLE "0:"
    INDEX 01 00:56:63
  TRACK 60 AUDIO
    TITLE "12:cjc026_12050"
    INDEX 01 00:57:23
  TRACK 61 AUDIO
    TITLE "0:"
    INDEX 01 00:58:69
  TRACK 62 AUDIO
    TITLE "10:cjc026_12051"
    INDEX 01 00:59:32
  TRACK 63 AUDIO
    TITLE "0:"
    INDEX 01 01:00:73
  TRACK 64 AUDIO
    TITLE "11:cjc026_12052"
    INDEX 01 01:01:39
  TRACK 65 AUDIO
    TITLE "0:"
    INDEX 01 01:03:02
  TRACK 66 AUDIO
    TITLE "12:cjc026_12053"
    INDEX 01 01:03:37
  TRACK 67 AUDIO
    TITLE "0:"
    INDEX 01 01:05:03
